# xmcd CD database file
#
# Track frame offsets:
#	150
#	24405
#	48648
#	73427
#	93441
#	114111
#	128593
#	158249
#	175043
#
# Disc length: 2451 seconds
#
# Revision: 1
# Processed by: cddbd v1.5.2PL0 Copyright (c) Steve Scherf et al.
# Submitted via: CDex 1.70beta2
#
DISCID=70099109
DTITLE=Karsten Vogel - This Is It
DYEAR=2018
DGENRE=Jazz
TTITLE0=Montmatre
TTITLE1=Kyoto
TTITLE2=Second of May
TTITLE3=Tis Is It
TTITLE4=A Golden Song (of Love)
TTITLE5=Air Air
TTITLE6=Ouleeka
TTITLE7=No Time
TTITLE8=Lily and the Bird
EXTD=YEAR: 2018
EXTT0=
EXTT1=
EXTT2=
EXTT3=
EXTT4=
EXTT5=
EXTT6=
EXTT7=
EXTT8=
PLAYORDER=
